<svg xmlns="http://www.w3.org/2000/svg" xmlns:xlink="http://www.w3.org/1999/xlink" width="25.197" height="25.195" viewBox="0 0 25.197 25.195">
  <defs>
    <clipPath id="clip-path">
      <rect width="25.197" height="25.195" fill="none"/>
    </clipPath>
  </defs>
  <g id="moon" clip-path="url(#clip-path)">
    <path id="Path_27" data-name="Path 27" d="M24.1,7a.875.875,0,0,1,.265.055c4.969,1.842,7.828,6.668,7.828,12.167A12.979,12.979,0,0,1,19.23,32.194c-5.5,0-10.334-2.858-12.176-7.828a.879.879,0,0,1,1.153-1.126,11.029,11.029,0,0,0,4.129.778c6.071,0,11.682-5.62,11.682-11.691A11.024,11.024,0,0,0,23.249,8.2.879.879,0,0,1,24.1,7Zm1.355,2.536a13.127,13.127,0,0,1,.32,2.793,13.841,13.841,0,0,1-13.44,13.449,13.126,13.126,0,0,1-2.792-.33c1.926,3.181,5.486,4.989,9.686,4.989A11.2,11.2,0,0,0,30.435,19.221C30.435,15.022,28.636,11.462,25.455,9.535Z" transform="translate(-6.996 -6.999)" fill="#4b4b4b"/>
  </g>
</svg>
